<svg width="600" height="800" viewBox="0 0 600 800" xmlns="http://www.w3.org/2000/svg">
  <defs>
    <!-- Gradient for background -->
    <radialGradient id="forestGradient" cx="0.3" cy="0.2" r="0.8">
      <stop offset="0%" style="stop-color:#f4e4c1;stop-opacity:0.8"/>
      <stop offset="30%" style="stop-color:#d4a574;stop-opacity:0.6"/>
      <stop offset="70%" style="stop-color:#8b4513;stop-opacity:0.4"/>
      <stop offset="100%" style="stop-color:#2d1810;stop-opacity:1"/>
    </radialGradient>
    
    <!-- Light beam gradient -->
    <linearGradient id="lightBeam" x1="0%" y1="0%" x2="0%" y2="100%">
      <stop offset="0%" style="stop-color:#fff8dc;stop-opacity:0.9"/>
      <stop offset="50%" style="stop-color:#f4e4c1;stop-opacity:0.5"/>
      <stop offset="100%" style="stop-color:#deb887;stop-opacity:0.2"/>
    </linearGradient>
    
    <!-- Tree gradient -->
    <linearGradient id="treeGradient" x1="0%" y1="0%" x2="0%" y2="100%">
      <stop offset="0%" style="stop-color:#1a1a1a;stop-opacity:0.9"/>
      <stop offset="100%" style="stop-color:#0d0d0d;stop-opacity:1"/>
    </linearGradient>
  </defs>
  
  <!-- Background -->
  <rect width="600" height="800" fill="url(#forestGradient)"/>
  
  <!-- Light beam area -->
  <polygon points="150,0 450,0 350,400 250,400" fill="url(#lightBeam)" opacity="0.7"/>
  
  <!-- Trees silhouettes -->
  <!-- Left trees -->
  <ellipse cx="50" cy="700" rx="80" ry="300" fill="url(#treeGradient)"/>
  <ellipse cx="120" cy="680" rx="60" ry="280" fill="url(#treeGradient)"/>
  <ellipse cx="180" cy="720" rx="70" ry="250" fill="url(#treeGradient)"/>
  
  <!-- Right trees -->
  <ellipse cx="550" cy="690" rx="70" ry="310" fill="url(#treeGradient)"/>
  <ellipse cx="480" cy="700" rx="65" ry="270" fill="url(#treeGradient)"/>
  <ellipse cx="420" cy="730" rx="55" ry="240" fill="url(#treeGradient)"/>
  
  <!-- Center distant trees -->
  <ellipse cx="300" cy="600" rx="40" ry="150" fill="url(#treeGradient)" opacity="0.6"/>
  <ellipse cx="280" cy="580" rx="35" ry="140" fill="url(#treeGradient)" opacity="0.5"/>
  <ellipse cx="320" cy="590" rx="30" ry="130" fill="url(#treeGradient)" opacity="0.5"/>
  
  <!-- Ground/forest floor -->
  <ellipse cx="300" cy="780" rx="300" ry="50" fill="#1a1a1a" opacity="0.8"/>
  
  <!-- Additional light effects -->
  <circle cx="300" cy="150" r="100" fill="#fff8dc" opacity="0.3"/>
  <circle cx="300" cy="150" r="50" fill="#ffffff" opacity="0.2"/>
  
  <!-- Subtle texture overlay -->
  <rect width="600" height="800" fill="url(#forestGradient)" opacity="0.1"/>
</svg>