<svg width="600" height="800" viewBox="0 0 600 800" xmlns="http://www.w3.org/2000/svg">
  <defs>
    <!-- Enhanced forest gradient -->
    <radialGradient id="deepForest" cx="0.5" cy="0.3" r="1.2">
      <stop offset="0%" style="stop-color:#fef7e0;stop-opacity:0.9"/>
      <stop offset="20%" style="stop-color:#f4d03f;stop-opacity:0.7"/>
      <stop offset="50%" style="stop-color:#b7791f;stop-opacity:0.5"/>
      <stop offset="80%" style="stop-color:#6b4e3d;stop-opacity:0.7"/>
      <stop offset="100%" style="stop-color:#2c1810;stop-opacity:1"/>
    </radialGradient>
    
    <!-- Sunlight gradient -->
    <radialGradient id="sunlight" cx="0.5" cy="0.1" r="0.6">
      <stop offset="0%" style="stop-color:#fff9c4;stop-opacity:1"/>
      <stop offset="40%" style="stop-color:#f7dc6f;stop-opacity:0.8"/>
      <stop offset="80%" style="stop-color:#e67e22;stop-opacity:0.3"/>
      <stop offset="100%" style="stop-color:#d68910;stop-opacity:0"/>
    </radialGradient>
    
    <!-- Tree trunk gradient -->
    <linearGradient id="trunk" x1="0%" y1="0%" x2="100%" y2="0%">
      <stop offset="0%" style="stop-color:#0f0f0f;stop-opacity:1"/>
      <stop offset="50%" style="stop-color:#1a1a1a;stop-opacity:0.9"/>
      <stop offset="100%" style="stop-color:#0a0a0a;stop-opacity:1"/>
    </linearGradient>
  </defs>
  
  <!-- Base background -->
  <rect width="600" height="800" fill="url(#deepForest)"/>
  
  <!-- Sunlight rays -->
  <g opacity="0.6">
    <polygon points="200,0 250,0 350,600 300,600" fill="url(#sunlight)"/>
    <polygon points="250,0 300,0 400,600 350,600" fill="url(#sunlight)"/>
    <polygon points="300,0 350,0 450,600 400,600" fill="url(#sunlight)"/>
    <polygon points="350,0 400,0 500,600 450,600" fill="url(#sunlight)"/>
  </g>
  
  <!-- Tree silhouettes with more detail -->
  <!-- Left side trees -->
  <g opacity="0.95">
    <rect x="20" y="400" width="15" height="400" fill="url(#trunk)"/>
    <ellipse cx="27" cy="450" rx="45" ry="200" fill="#0d0d0d"/>
    
    <rect x="80" y="350" width="18" height="450" fill="url(#trunk)"/>
    <ellipse cx="89" cy="400" rx="55" ry="250" fill="#0d0d0d"/>
    
    <rect x="140" y="380" width="12" height="420" fill="url(#trunk)"/>
    <ellipse cx="146" cy="430" rx="40" ry="180" fill="#0d0d0d"/>
  </g>
  
  <!-- Right side trees -->
  <g opacity="0.95">
    <rect x="565" y="420" width="15" height="380" fill="url(#trunk)"/>
    <ellipse cx="572" cy="470" rx="50" ry="220" fill="#0d0d0d"/>
    
    <rect x="510" y="390" width="16" height="410" fill="url(#trunk)"/>
    <ellipse cx="518" cy="440" rx="48" ry="210" fill="#0d0d0d"/>
    
    <rect x="460" y="410" width="14" height="390" fill="url(#trunk)"/>
    <ellipse cx="467" cy="460" rx="42" ry="190" fill="#0d0d0d"/>
  </g>
  
  <!-- Background trees (depth) -->
  <g opacity="0.4">
    <ellipse cx="250" cy="500" rx="25" ry="120" fill="#1a1a1a"/>
    <ellipse cx="300" cy="480" rx="30" ry="140" fill="#1a1a1a"/>
    <ellipse cx="350" cy="520" rx="28" ry="130" fill="#1a1a1a"/>
    <ellipse cx="380" cy="490" rx="22" ry="110" fill="#1a1a1a"/>
  </g>
  
  <!-- Forest floor -->
  <ellipse cx="300" cy="790" rx="300" ry="40" fill="#0f0f0f" opacity="0.8"/>
  
  <!-- Enhanced light source -->
  <circle cx="300" cy="100" r="80" fill="#fff9c4" opacity="0.4"/>
  <circle cx="300" cy="100" r="40" fill="#ffffff" opacity="0.3"/>
  <circle cx="300" cy="100" r="15" fill="#ffffff" opacity="0.6"/>
  
  <!-- Atmospheric particles -->
  <g opacity="0.3">
    <circle cx="280" cy="200" r="2" fill="#f7dc6f"/>
    <circle cx="320" cy="250" r="1.5" fill="#f7dc6f"/>
    <circle cx="310" cy="180" r="1" fill="#fff9c4"/>
    <circle cx="290" cy="300" r="2.5" fill="#f7dc6f"/>
    <circle cx="330" cy="220" r="1" fill="#fff9c4"/>
  </g>
</svg>